<?xml version="1.0" encoding="UTF-8" standalone="no"?>
<svg
   version="1.1"
   id="Layer_1"
   x="0"
   y="0"
   xml:space="preserve"
   viewBox="77.58 220.1 456.09736 199.16618"
   sodipodi:docname="nutrien.svg"
   width="456.09735"
   height="199.16618"
   inkscape:version="1.4-beta (62f545ba5e, 2024-04-22)"
   xmlns:inkscape="http://www.inkscape.org/namespaces/inkscape"
   xmlns:sodipodi="http://sodipodi.sourceforge.net/DTD/sodipodi-0.dtd"
   xmlns="http://www.w3.org/2000/svg"
   xmlns:svg="http://www.w3.org/2000/svg"><sodipodi:namedview
   id="namedview4"
   pagecolor="#ffffff"
   bordercolor="#000000"
   borderopacity="0.25"
   inkscape:showpageshadow="2"
   inkscape:pageopacity="0.0"
   inkscape:pagecheckerboard="0"
   inkscape:deskcolor="#d1d1d1"
   inkscape:zoom="2.0143738"
   inkscape:cx="226.86951"
   inkscape:cy="222.1534"
   inkscape:window-width="1920"
   inkscape:window-height="1009"
   inkscape:window-x="-8"
   inkscape:window-y="-8"
   inkscape:window-maximized="1"
   inkscape:current-layer="Layer_1" />  <defs
   id="defs1" />  <linearGradient
   id="SVGID_1_"
   gradientUnits="userSpaceOnUse"
   x1="116.502"
   y1="340.98199"
   x2="139.062"
   y2="234.847"
   gradientTransform="matrix(0.52886847,0,0,0.52886847,72.363422,135.40321)">    <stop
   offset="0"
   stop-color="#4d9a47"
   id="stop1" />    <stop
   offset="1"
   stop-color="#a5cd39"
   id="stop2" />  </linearGradient>      <rect
   style="fill:#ffffff;stroke:none;stroke-width:2;fill-opacity:1"
   id="rect5"
   width="456.09735"
   height="199.16618"
   x="77.580002"
   y="220.10001"
   ry="1.9237671" /><g
   id="g5"
   transform="translate(28.302279,32.283112)"><path
     d="m 159.46806,312.99724 c -0.58176,-1.11062 -3.38475,-6.34641 -5.71178,-13.80346 -2.32702,-7.29839 -4.60115,-16.23626 -5.71178,-20.94319 -2.32702,-9.62541 -6.13487,-18.45751 -17.55843,-21.89516 -5.07714,-1.53371 -17.08245,-1.16351 -17.08245,-1.16351 0,0 8.25035,5.2358 12.90439,13.90924 2.96166,5.50023 3.64919,10.41871 4.12517,12.00531 9.14943,0.15866 13.06305,4.33673 18.35174,13.85636 1.16351,2.06259 2.37991,4.23095 3.54342,6.24065 -1.69238,-2.59145 -3.59631,-5.44735 -5.28869,-7.72148 -3.80785,-5.18292 -8.72632,-10.0485 -16.28915,-10.20716 -3.64919,-0.10577 -2.00969,0.0529 -7.29838,-0.0529 8.19746,4.54828 8.83211,15.81317 13.96212,23.11156 4.75982,6.71663 8.93789,12.26975 20.99609,14.64965 1.69237,0.31733 5.71178,0.95197 7.56281,0.8462 -2.37991,-2.16837 -4.33672,-5.07714 -6.50508,-8.83211 z"
     fill="url(#SVGID_1_)"
     id="path2"
     style="fill:url(#SVGID_1_);stroke-width:0.528868" /><path
     class="st1"
     d="m 170.46852,255.19192 -12.69284,48.76167 c 2.59146,6.50509 5.02425,11.89954 8.93788,15.49585 l 13.96213,-53.41572 0.10577,-0.42309 c 0.15866,-0.63464 0.21155,-1.26928 0.21155,-1.90393 0,-5.13002 -4.60116,-8.40901 -10.52449,-8.51478 m -47.43949,30.09262 -9.36098,35.69862 h 13.01017 l 5.34157,-20.62587 c -2.4328,-6.87529 -4.86559,-12.11109 -8.99076,-15.07275 m 96.62427,35.64573 h -8.99077 c -1.63949,0 -2.59145,-0.42309 -2.75011,-1.32217 -0.21155,-0.89907 -0.0529,-2.16836 0.3702,-3.86074 -1.53371,1.48083 -3.59631,2.90878 -6.24064,4.17806 -2.64435,1.26929 -5.92333,1.90393 -9.88985,1.90393 -4.65404,0 -7.88013,-0.95196 -9.67829,-2.80301 -1.74526,-1.85103 -2.59146,-4.28383 -2.4328,-7.29838 0.0529,-1.48083 0.26444,-3.12033 0.63465,-4.91847 0.3702,-1.74527 0.74041,-3.49054 1.2164,-5.18292 l 7.08684,-27.23672 c 0.15866,-0.0529 0.68752,-0.15867 1.63948,-0.26444 0.95197,-0.10577 1.95682,-0.15866 3.01456,-0.15866 1.05773,0 2.06258,0.10577 3.06743,0.31732 1.00485,0.21155 1.85104,0.58176 2.59146,1.11062 0.68752,0.58176 1.2164,1.37506 1.48083,2.37991 0.26443,1.00485 0.15866,2.32702 -0.26443,3.96652 l -5.02426,19.25081 c -0.3702,1.53372 -0.68752,2.85589 -0.89907,4.07229 -0.21155,1.21639 -0.21155,2.27413 -0.0529,3.12032 0.21155,0.89908 0.68753,1.58661 1.53372,2.06259 0.84619,0.47598 2.11547,0.74041 3.80785,0.74041 2.43279,0 4.65404,-0.47598 6.66375,-1.48083 2.00969,-1.00485 3.22609,-2.27413 3.5963,-3.75496 l 8.14458,-31.3619 c 0.15865,-0.0529 0.68752,-0.15867 1.63948,-0.26444 0.95197,-0.10577 1.95682,-0.15866 3.01456,-0.15866 1.05773,0 2.06258,0.10577 3.06743,0.37021 1.00485,0.26443 1.85104,0.63464 2.53857,1.26928 0.68753,0.63465 1.16351,1.48084 1.42795,2.53857 0.26443,1.05774 0.15866,2.4328 -0.26444,4.07229 z m 13.59191,-7.03395 c -0.10577,-1.32217 -0.0529,-2.69723 0.21155,-4.12517 0.26444,-1.42795 0.52887,-2.85589 0.95196,-4.33672 l 11.89954,-45.58847 1.53372,-0.21154 c 0.47598,-0.0529 1.00485,-0.10577 1.53372,-0.15866 0.52887,-0.0529 1.05774,-0.0529 1.5866,-0.0529 1.05774,0 2.06259,0.10577 3.06745,0.31732 1.00485,0.21154 1.85103,0.58176 2.53856,1.16351 0.68753,0.58176 1.16351,1.37506 1.42794,2.43279 0.26444,1.00485 0.15867,2.32702 -0.26443,3.96652 l -1.79815,6.87529 13.85635,0.0529 -2.59145,10.0485 -13.85636,-0.0529 -5.50023,21.04897 c -1.21639,4.60116 0.10578,6.87529 3.86075,6.87529 0.89907,0 1.85103,-0.15866 2.75011,-0.42309 0.89908,-0.31733 1.74527,-0.63465 2.53857,-0.95197 0.7933,-0.37021 1.48083,-0.74042 2.0097,-1.11062 0.58175,-0.37021 0.95196,-0.68753 1.21639,-0.89908 0.63465,1.42794 1.05774,2.69723 1.32217,3.75496 0.26444,1.05774 0.26444,2.00971 0,2.96167 -0.21154,0.84619 -0.7933,1.69238 -1.69237,2.48569 -0.89908,0.7933 -2.06259,1.58659 -3.49053,2.27413 -1.42795,0.68752 -3.06745,1.2164 -4.97137,1.63949 -1.90392,0.42309 -3.91363,0.63464 -5.97621,0.63464 -4.12518,0 -7.13973,-0.7933 -8.99076,-2.3799 -1.85105,-1.6395 -2.90878,-3.70209 -3.17322,-6.24066 m 57.06491,-34.69377 c 0.52887,-0.58175 1.26929,-1.21639 2.11547,-1.95681 0.89908,-0.74041 1.85105,-1.37506 2.90878,-1.95681 1.05774,-0.58176 2.22125,-1.05774 3.49054,-1.48083 1.26928,-0.37022 2.53856,-0.58176 3.86073,-0.58176 0.79331,0 1.58661,0.0529 2.48568,0.21154 0.8462,0.15867 1.6395,0.37022 2.27414,0.74043 0.68753,0.3702 1.16351,0.84618 1.42794,1.48083 0.31732,0.63464 0.31732,1.37505 0.10578,2.32702 -0.37021,1.37505 -1.16351,3.01455 -2.37991,4.91847 -1.2164,1.90393 -2.37991,3.49053 -3.43765,4.8127 -0.89907,-0.89907 -1.79815,-1.63948 -2.803,-2.11547 -1.00485,-0.47598 -2.22125,-0.74041 -3.75496,-0.74041 -2.0626,0 -3.91363,0.58175 -5.60601,1.74526 -1.69238,1.16351 -2.75011,2.59146 -3.17321,4.23095 l -7.88014,30.25128 -13.43326,-0.0529 12.11109,-46.48754 1.2164,-0.21155 c 0.42309,-0.0529 0.89907,-0.10577 1.42794,-0.15866 0.52887,-0.0529 1.16351,-0.0529 1.90393,-0.0529 2.11547,0 3.80785,0.4231 5.18291,1.2164 1.32217,0.89907 1.95681,2.16836 1.95681,3.86074 m 43.52587,-20.25566 c -0.52886,2.11547 -1.69237,3.80785 -3.43764,5.13002 -1.74527,1.32218 -3.64919,1.95681 -5.606,1.95681 -2.06259,0 -3.59631,-0.68752 -4.60116,-1.95681 -1.05774,-1.32217 -1.26928,-3.01455 -0.74042,-5.13002 0.52887,-2.11548 1.69238,-3.80786 3.43764,-5.13003 1.74527,-1.32217 3.6492,-2.0097 5.6589,-2.0097 1.95681,0 3.49054,0.68753 4.54827,2.0097 1.00485,1.32217 1.26929,3.06744 0.74041,5.13003 m -16.4478,62.82957 c -0.31733,0.10578 -0.89908,0.21155 -1.85104,0.26444 -0.95197,0.0529 -1.95682,0.10577 -2.96167,0.10577 -2.59146,0 -4.49538,-0.52887 -5.87044,-1.63949 -1.32217,-1.11063 -1.58661,-3.27899 -0.74041,-6.55797 l 10.26004,-39.29493 c 0.15867,-0.0529 0.68753,-0.15866 1.6395,-0.26443 0.95196,-0.10578 1.95681,-0.15867 3.01455,-0.15867 1.05773,0 2.06258,0.10578 3.06743,0.31733 1.00486,0.21155 1.85105,0.58175 2.59146,1.11062 0.68753,0.58175 1.21639,1.37506 1.48083,2.37991 0.26444,1.00485 0.15866,2.32702 -0.26444,3.96651 z m 45.90578,-28.82333 c 0.7933,-3.12032 0.89907,-5.71178 0.15866,-7.66859 -0.68753,-1.95682 -2.64435,-2.96167 -5.81755,-2.96167 -2.75012,0 -5.18292,0.89908 -7.2455,2.80301 -2.06259,1.85103 -3.54342,4.44249 -4.38961,7.82725 z m -9.62541,19.93834 c 1.6395,0 3.12033,-0.15866 4.49538,-0.52887 1.32217,-0.37021 2.59146,-0.7933 3.70208,-1.32217 1.11063,-0.52887 2.11548,-1.11062 3.01456,-1.69238 0.89907,-0.63464 1.69237,-1.2164 2.43279,-1.69238 0.52886,1.00485 1.00485,2.22125 1.48083,3.80786 0.47598,1.53371 0.58176,2.803 0.31732,3.80785 -0.3702,1.42794 -1.53372,2.75011 -3.49053,3.91362 -1.63949,1.05774 -3.86074,1.95682 -6.55797,2.69724 -2.75012,0.74041 -5.81755,1.11062 -9.2552,1.11062 -3.12032,0 -6.02909,-0.4231 -8.8321,-1.2164 -2.80301,-0.7933 -5.13003,-2.16836 -6.92818,-4.12518 -1.85104,-1.95681 -3.01455,-4.60115 -3.5963,-7.93302 -0.58176,-3.33187 -0.21155,-7.50993 1.11062,-12.53418 1.05774,-4.12518 2.64434,-7.6686 4.70693,-10.63026 2.06258,-2.96167 4.44249,-5.44735 7.08684,-7.40416 2.64434,-1.95681 5.44734,-3.38475 8.40901,-4.28383 2.96166,-0.89908 5.81755,-1.37506 8.67344,-1.37506 3.70208,0 6.66374,0.58175 8.93788,1.74526 2.27413,1.16351 3.96651,2.69723 5.07714,4.65404 1.11062,1.95682 1.69237,4.17807 1.79814,6.66375 0.0529,2.48569 -0.26443,5.13002 -0.95196,7.88014 -0.10577,0.37021 -0.21155,0.84619 -0.37021,1.37506 -0.15866,0.52887 -0.31731,1.05774 -0.47597,1.69238 -0.21155,0.58175 -0.37022,1.16351 -0.52888,1.74526 -0.15866,0.58176 -0.31732,1.00485 -0.47598,1.32218 l -29.03488,-0.0529 c -0.68752,3.5963 -0.31732,6.61085 1.00485,8.99076 1.16351,2.16836 3.96652,3.38476 8.25035,3.38476 m 37.0208,8.19746 -13.53904,-0.0529 12.0582,-46.22311 1.2164,-0.21155 c 0.4231,-0.0529 0.89908,-0.10577 1.42795,-0.15865 0.52887,-0.0529 1.16351,-0.0529 1.90392,-0.0529 2.11548,0 3.86074,0.37021 5.18291,1.16351 1.37506,0.74042 1.95681,2.06259 1.90393,3.96651 1.53372,-1.48083 3.5963,-2.90877 6.24065,-4.17805 2.64434,-1.26929 5.92332,-1.90394 9.88984,-1.90394 4.65404,0 7.88014,0.95197 9.67829,2.80301 1.74527,1.85104 2.59145,4.28383 2.43279,7.29839 -0.0529,1.48083 -0.26443,3.12032 -0.63464,4.91847 -0.37021,1.74527 -0.74041,3.49054 -1.21639,5.2358 l -7.13973,27.3425 H 406.6083 l 6.98106,-26.81363 c 0.3702,-1.42795 0.68753,-2.80301 0.89908,-4.0194 0.21155,-1.26929 0.26443,-2.32702 0.0529,-3.17321 -0.21154,-0.89908 -0.68753,-1.58661 -1.53372,-2.06259 -0.84618,-0.47598 -2.11547,-0.74042 -3.80785,-0.74042 -2.4328,0 -4.65404,0.47599 -6.66374,1.48084 -2.0097,1.00485 -3.2261,2.27413 -3.59631,3.75496 z"
     id="path3"
     style="stroke-width:0.528868" /><g
     id="g4"
     transform="matrix(0.52886846,0,0,0.52886846,72.363422,135.40321)">    <path
   class="st1"
   d="m 697.5,268 c 0,3.3 -2.6,6 -6,6 -3.4,0 -6.1,-2.6 -6.1,-6 0,-3.3 2.7,-5.9 6.1,-5.9 3.4,0 6,2.6 6,5.9 z m -10.6,0 c 0,2.6 1.9,4.7 4.6,4.7 2.6,0 4.5,-2.1 4.5,-4.7 0,-2.6 -1.9,-4.8 -4.5,-4.8 -2.6,0.1 -4.6,2.2 -4.6,4.8 z m 3.6,3.1 h -1.4 v -5.9 c 0.5,-0.1 1.3,-0.2 2.3,-0.2 1.1,0 1.6,0.2 2.1,0.4 0.3,0.3 0.6,0.7 0.6,1.3 0,0.6 -0.5,1.2 -1.2,1.4 v 0.1 c 0.6,0.2 0.9,0.6 1.1,1.4 0.2,0.9 0.3,1.3 0.4,1.5 h -1.5 c -0.2,-0.2 -0.3,-0.8 -0.5,-1.4 -0.1,-0.6 -0.5,-0.9 -1.2,-0.9 h -0.6 v 2.3 z m 0.1,-3.4 h 0.6 c 0.8,0 1.4,-0.3 1.4,-0.9 0,-0.5 -0.4,-0.9 -1.3,-0.9 -0.4,0 -0.6,0 -0.8,0.1 v 1.7 z"
   id="path4" />  </g></g></svg>
