<?xml version="1.0" encoding="UTF-8"?>
<svg width="140px" height="24px" viewBox="0 0 140 24" version="1.1" xmlns="http://www.w3.org/2000/svg" xmlns:xlink="http://www.w3.org/1999/xlink">
    <!-- Generator: Sketch 53.2 (72643) - https://sketchapp.com -->
    <title>Logo / Dark@1x</title>
    <desc>Created with Sketch.</desc>
    <defs>
        <polygon id="path-1" points="0 0.246700413 18.1094139 0.246700413 18.1094139 23.9992217 0 23.9992217"></polygon>
    </defs>
    <g id="Ecomm" stroke="none" stroke-width="1" fill="none" fill-rule="evenodd">
        <g id="D---Device-Detail-1-(Banner---Out-of-Stock)-Expand-Copy" transform="translate(-125.000000, -78.000000)">
            <g id="Header-/-Desktop-/-Consumer-/-All">
                <g id="Header-/-Desktop-/-Middle-Tier" transform="translate(0.000000, 60.000000)">
                    <g id="Logo-/-Colour" transform="translate(125.000000, 18.000000)">
                        <g id="Group">
                            <g id="Group-3">
                                <mask id="mask-2" fill="white">
                                    <use xlink:href="#path-1"></use>
                                </mask>
                                <g id="Clip-2"></g>
                                <path d="M18.1092518,7.13828656 C18.1686375,-1.78668186 1.89553569,-2.08912644 1.95492142,6.50058502 C1.99309795,11.9631336 5.63825014,12.8319485 10.0610725,14.7108141 C13.385259,16.1217466 12.5128545,19.9736352 8.75317266,19.9465293 C4.60182789,19.9165702 5.11367626,16.9406296 5.11367626,16.9406296 L-0.000565578307,16.9406296 C0.87183896,26.5603646 16.9639557,26.2593466 16.9639557,16.5768401 C16.9639557,13.0644884 14.1685849,11.2455411 9.50680576,9.44513981 C4.34024792,7.44786427 6.69305368,4.37633981 9.60860985,4.37633981 C10.9037842,4.37633981 12.99501,4.67735777 13.0543957,7.1682457 L18.1092518,7.13828656 Z" id="Fill-1" fill="#111111" mask="url(#mask-2)"></path>
                            </g>
                            <path d="M28.8347703,14.7978401 C27.7371104,15.3514449 26.1557359,15.8705394 24.4498551,16.2055782 C21.5032035,16.7879417 22.8770673,21.6912992 26.7940101,19.2022341 C28.5285132,18.1022141 28.6215352,16.297606 28.8347703,14.7978401 L28.8347703,14.7978401 Z M19.8545669,11.6775217 C20.279606,3.8479671 35.158837,3.96443982 33.9194974,11.3712416 C33.3413297,14.8294746 32.3982295,20.4906237 32.6400868,22.995506 L28.1349584,22.995506 L28.1349584,21.3763915 C19.0073509,28.9845041 13.3788028,13.7251408 24.6645213,12.7789797 C25.0280227,12.7473451 30.2658784,12.6567553 29.412938,10.6680915 C28.5599975,8.68086573 24.4813394,9.44440907 24.4813394,11.648763 L19.8545669,11.6775217 Z" id="Fill-4" fill="#111111"></path>
                            <path d="M49.1007194,11.6642051 C49.1007194,4.36524936 35.4636557,4.10604742 35.4636557,11.4391836 C35.4636557,15.0124675 39.5743769,16.1546651 42.2800413,16.8624857 C44.839763,17.5275808 43.9269053,20.2548979 41.7964271,20.2548979 C39.2982303,20.2548979 38.8117544,18.964585 38.8117544,17.5574887 L34.2446043,17.5574887 C34.2446043,25.7380159 48.4296689,25.8006801 48.4296689,17.8010246 C48.4296689,14.5595762 44.1143416,13.1510558 42.0682812,12.67965 C39.0836086,11.9903438 39.6330402,9.55925746 42.2213781,9.55925746 C44.0270621,9.55925746 44.536431,10.6444876 44.536431,11.6642051 L49.1007194,11.6642051 Z" id="Fill-6" fill="#111111"></path>
                            <polygon id="Fill-8" fill="#111111" points="53.0902704 0.505263158 49.1007194 23.2421053 53.6565107 23.2421053 57.6618705 0.505263158"></polygon>
                            <polygon id="Fill-10" fill="#111111" points="67.7085381 23.2421053 60.6514456 14.7060993 68.4892086 6.56842105 63.2348582 6.56842105 55.3956835 14.7060993 62.4541876 23.2421053"></polygon>
                            <polygon id="Fill-12" fill="#111111" points="68.4117293 23.2421053 72.9264596 23.2421053 76.2031651 4.63675401 82.8392061 4.63675401 83.5971223 0.505263158 64.6691618 0.505263158 63.9568345 4.63675401 71.6542431 4.65255047"></polygon>
                            <path d="M86.4407637,18.0891992 C85.7315634,20.1469636 80.4296506,21.8985554 80.4296506,16.1140303 L91.7597657,16.1140303 C93.6979617,3.17930809 75.7913669,2.34908206 75.7913669,15.8406111 C75.7913669,25.9571218 88.9115719,25.987027 91.336809,18.0891992 L86.4407637,18.0891992 Z M80.6404169,13.1947106 C81.4578486,8.73598386 86.9876169,8.86272506 87.3037665,13.1947106 L80.6404169,13.1947106 Z" id="Fill-14" fill="#111111"></path>
                            <polygon id="Fill-16" fill="#111111" points="96.399623 0.505263158 92.4100719 23.2421053 96.9673004 23.2421053 100.971223 0.505263158"></polygon>
                            <polygon id="Fill-18" fill="#0074B3" points="140 0.505263158 109.532374 0.505263158 109.532374 3.28421053 121.28391 3.28421053 121.28391 1.9533674 140 1.9533674"></polygon>
                            <polygon id="Fill-20" fill="#0074B3" points="139.244604 4.54736842 108.776978 4.54736842 108.776978 7.32631579 121.861435 7.32631579 121.861435 5.99682446 139.244604 5.99682446"></polygon>
                            <polygon id="Fill-22" fill="#0074B3" points="138.489209 8.58947368 108.021583 8.58947368 108.021583 11.3684211 122.436998 11.3684211 122.436998 10.036107 138.489209 10.036107"></polygon>
                            <polygon id="Fill-24" fill="#0074B3" points="137.985612 12.3789474 107.517986 12.3789474 107.517986 15.1578947 123.2254 15.1578947 123.2254 13.8284034 137.985612 13.8284034"></polygon>
                            <polygon id="Fill-26" fill="#0074B3" points="137.230216 16.4210526 106.76259 16.4210526 106.76259 19.2 123.804524 19.2 123.804524 17.8698331 137.230216 17.8698331"></polygon>
                            <polygon id="Fill-28" fill="#0074B3" points="136.47482 20.4631579 106.007194 20.4631579 106.007194 23.2421053 124.418877 23.2421053 124.418877 21.9126139 136.47482 21.9126139"></polygon>
                        </g>
                    </g>
                </g>
            </g>
        </g>
    </g>
</svg>